<svg width="235" height="226" viewBox="0 0 235 226" fill="none" xmlns="http://www.w3.org/2000/svg">
<path d="M103.333 3.13334C93.0667 8.20001 86.2667 17.2667 84.5333 28.3333L83.6 33.8L80.4 28.0667C76.4 21.1333 76.9333 21.5333 74.8 23C73.3333 23.8 73.7333 25.4 76.9333 31.2667C79.0667 35.1333 80.6667 39.1333 80.2667 40.2C79.8667 41.2667 80.2667 41.6667 81.2 41.1333C82 40.6 82.6667 40.8667 82.6667 41.6667C82.6667 44.3333 79.3333 42.2 79.3333 39.5333C79.2 38.2 78.5333 37.1333 77.6 37.2667C76.8 37.5333 76.4 36.7333 76.9333 35.5333C77.3333 34.4667 77.0667 33.6667 76.4 33.9333C75.7333 34.2 72.5333 31 69.2 27C62 18.2 55.6 15.1333 49.8667 17.9333C47.7333 18.8667 45.4667 21.2667 44.8 23.2667C42.8 29 45.6 33.2667 53.7333 36.8667C57.8667 38.6 62.6667 42.0667 65.0667 45C68.9333 49.8 77.3333 64.3333 77.3333 66.3333C77.3333 66.8667 75.2 65.4 72.6667 63.1333C65.7333 57 60.5333 54.8667 53.2 54.7333C45.8667 54.7333 42.5333 56.7333 39.0667 63.4C37.4667 66.4667 36.8 66.8667 35.2 65.5333C32.4 63.2667 32.9333 57 36.4 53C42.4 45.9333 58.2667 46.3333 66.1333 53.8C67.8667 55.4 69.3333 56.2 69.3333 55.2667C69.3333 54.4667 67.6 52.6 65.3333 51C63.2 49.4 61.3333 47.4 61.3333 46.4667C61.3333 45.6667 60.2667 44.8667 59.0667 44.7333C57.7333 44.6 54.4 44.2 51.6 43.6667C44.6667 42.2 35.2 46.0667 31.8667 51.5333C30.4 53.9333 29.3333 58.0667 29.3333 61.8C29.3333 68.2 31.7333 71.4 40.5333 76.8667L44.4 79.4L41.3333 81C38.6667 82.4667 37.0667 81.9333 27.4667 76.8667C21.4667 73.6667 16.2667 71 15.7333 71C15.0667 71 14.6667 72.0667 14.6667 73.4C14.6667 75.1333 17.4667 77.2667 23.8667 80.3333L33.0667 84.7333L28.5333 89C26 91.4 22.8 96.2 21.2 99.6667C18.9333 104.867 18 105.8 15.6 105.133C14 104.733 10.2667 104.067 7.19999 103.533C1.86665 102.733 1.73332 102.867 0.799986 107C-0.533347 113.8 -0.133347 115 2.79999 115C4.39999 115 5.86665 116.067 6.26665 117.533C6.79999 119.533 8.66665 120.333 14.4 121C22.8 122.067 30.1333 126.467 27.8667 129.133C27.0667 130.067 25.7333 130.6 24.6667 130.2C23.7333 129.8 22.5333 130.067 22 130.867C21.6 131.667 21.7333 132.333 22.4 132.333C23.2 132.333 23.4667 135.933 23.0667 140.867C22.5333 146.333 22.8 149.667 23.8667 150.2C26.6667 151.933 25.3333 155.133 21.3333 156.467C19.2 157.267 17.3333 158.467 17.3333 159C17.3333 159.533 15.8667 160.467 14 160.867C9.99999 161.933 9.73332 163.8 13.4667 165C15.2 165.533 17.0667 165.133 18.5333 163.8C19.8667 162.6 21.3333 162.067 22 162.6C22.5333 163.267 22.6667 163 22.1333 162.067C21.7333 161.267 21.8667 160.2 22.6667 159.667C23.4667 159.133 24 161.267 24 165.267C24 178.6 32 185.133 46.8 184.067L55.8667 183.4L55.0667 187.133C53.8667 193.4 55.8667 199.933 60.4 204.733C62.8 207.267 65.4667 209.533 66.5333 209.8C68 210.333 68 211 66.8 213.267C65.7333 215.4 65.7333 216.467 66.8 217.133C68.2667 217.933 70.5333 215.933 73.3333 211.133C74.1333 209.533 75.2 209.8 78.6667 212.733C80.9333 214.733 83.3333 216.333 83.7333 216.333C84.2667 216.333 86.8 212.333 89.3333 207.533C92.9333 200.867 95.0667 198.333 98.5333 196.867C102.533 195.133 103.2 195.267 104.8 197.267C105.733 198.6 106.667 200.067 106.667 200.467C106.667 202.2 117.2 205.933 120.8 205.4C124.133 205 124.667 205.533 125.067 208.6C125.6 212.6 129.733 216.333 133.733 216.333C137.2 216.333 142.667 210.333 142.667 206.6C142.667 204.867 141.467 201.8 140 199.933C138.533 198.067 137.733 195.667 138.133 194.6C138.8 192.867 139.467 192.733 143.333 194.467C145.867 195.4 149.6 195.933 151.733 195.533C155.467 194.733 155.867 195.267 161.867 205.533C165.467 211.533 168.8 216.6 169.333 217C171.867 218.6 172 214.733 169.467 210.067L166.933 205L170 202.6C171.733 201.4 173.467 200.333 173.733 200.333C174.133 200.333 176.133 203 178.133 206.2C180.933 210.6 182.4 211.8 183.6 210.867C185.2 209.4 184.267 207.667 178.4 201.4C177.067 200.067 176 198.6 176 198.2C176 197.667 173.867 194.6 171.333 191.133C168.133 186.733 167.067 183.933 167.6 181.933C168.533 178.333 172 178.067 172 181.667C172 189.133 178.533 195 187.067 195C196.8 195 203.467 184.2 199.6 174.733C197.733 170.467 197.733 169.8 199.6 169.133C200.667 168.733 203.6 169.933 206 171.8C208.667 173.8 211.2 174.867 212.133 174.2C213.067 173.667 213.333 173.8 212.8 174.733C211.333 177 216.667 179.267 218.533 177.133C219.733 175.8 218.533 174.467 212.667 170.867C208.667 168.333 205.333 165.933 205.333 165.267C205.333 164.733 206.533 163.133 207.867 161.8C209.333 160.333 210.133 158.867 209.6 158.467C209.2 158.067 209.333 157.667 209.867 157.667C210.4 157.667 212.533 159.533 214.8 161.8C218.133 165.133 219.2 165.667 220.133 164.2C221.867 161.4 221.6 159.933 219.333 160.867C218.267 161.267 217.467 160.867 217.733 160.067C217.867 159.133 215.733 157.4 213.067 156.067C207.333 153.267 207.333 153.267 210 149.133C212.133 145.933 213.467 137.267 213.333 127.4L213.2 121.8L221.333 120.867C228 120.2 229.333 119.533 229.333 117.533C229.333 115.533 228.4 115 225.2 115C222.133 115 221.2 114.467 221.733 113.133C222.667 110.867 220 109.533 216.267 110.6C214.4 111 213.867 112.067 214.267 113.8C214.933 115.933 214.133 115.667 210.933 112.467C207.867 109.4 205.6 108.333 202 108.333C195.067 108.333 197.333 106.333 207.333 103.667C212.533 102.2 216 100.6 216 99.5333C216 97.1333 215.2 97.2667 207.2 99.6667C203.6 100.733 200.533 101.667 200.4 101.667C200.133 101.667 200 100.733 200 99.8C200 98.4667 202.933 97 208 95.5333C212.8 94.2 216 92.6 216 91.5333C216 89.1333 213.2 89.1333 206.533 91.9333C201.067 94.0667 200.933 94.0667 198.533 90.8667L196.133 87.6667L208.267 81.9333C215.067 78.8667 220.667 76.0667 220.933 75.8C221.2 75.5333 221.067 74.4667 220.533 73.2667C219.867 71.4 217.867 72.0667 206.8 77.6667C193.467 84.6 190.133 85.4 188.533 82.7333C188 81.9333 188.133 81.6667 188.933 82.0667C190.933 83.4 196 79.1333 195.2 77C194.667 75.8 195.2 75 196.4 75C197.467 75 200.267 72.8667 202.533 70.3333C211.733 59.6667 204.533 41.6667 190.933 41.6667C189.6 41.6667 186.4 42.8667 183.6 44.2C180.533 45.8 178.667 46.2 178.667 45.1333C178.667 42.0667 181.067 40.2 185.2 39.6667C191.2 38.8667 193.333 36.7333 193.333 31.5333C193.333 25.8 190.267 23 183.867 23C180.933 23 178.667 22.3333 178.667 21.5333C178.667 20.7333 177.733 20.4667 176.667 20.8667C175.6 21.2667 173.6 22.0667 172.4 22.6C170.533 23.2667 170.667 22.6 173.2 19.2667C174.8 16.8667 175.733 15 175.067 15C174.533 15 175.467 13.8 177.333 12.3333L180.667 9.66667L176.667 6.46667C172 2.60001 170.933 3.26667 166.8 12.0667C164.533 16.8667 163.067 18.4667 161.467 18.0667C159.867 17.6667 158.267 19.6667 155.467 25.2667L151.733 33L148.667 23.9333C145.333 13.6667 139.6 6.73334 131.333 2.86667C124 -0.599995 110.4 -0.466662 103.333 3.13334ZM125.733 5.80001C132.667 7.66667 140.933 15.4 142.933 21.8C144.933 28.8667 142.667 31.6667 138.667 27C137.2 25.2667 136 23.2667 136 22.4667C136 20.8667 126.267 12.3333 124.533 12.3333C124 12.3333 125.2 14.0667 127.2 16.2C132.133 21.2667 133.333 32.3333 130.133 41C127.2 48.4667 125.733 49.5333 126.4 43.6667C126.8 40.2 126 37.9333 122.533 33.4L118 27.4L114.267 32.0667C109.333 38.3333 108.4 42.6 111.067 47.2667C112.267 49.2667 112.667 51 112 51C111.2 51 110.667 53.1333 110.667 55.6667C110.667 61.1333 109.6 61.5333 105.333 57C103.733 55.2667 101.867 54.0667 101.333 54.3333C99.8667 55.2667 94.5333 51 95.4667 49.5333C95.8667 48.8667 95.4667 48.4667 94.5333 48.6C93.6 48.8667 91.7333 46.0667 90.2667 42.0667C88 36.0667 88 34.3333 89.3333 27.5333C90.6667 21.2667 92 18.8667 97.2 13.8C105.733 5.13334 114.667 2.73334 125.733 5.80001ZM62.5333 26.4667C67.3333 30.7333 76 42.6 76 44.7333C76 47.4 70.5333 45 67.4667 41.1333C65.6 38.6 60.6667 34.8667 56.5333 32.8667C48.5333 29 46.8 26.7333 49.3333 23.6667C52.1333 20.3333 57.0667 21.4 62.5333 26.4667ZM164.8 24.4667C165.2 25.2667 163.6 28.0667 161.067 30.7333C158.533 33.5333 155.2 37.4 153.6 39.5333C149.2 45.2667 150 43 156.133 32.4667C161.467 23 163.067 21.6667 164.8 24.4667ZM171.6 35.8C170.133 42.8667 169.067 44.4667 162 51.2667L154 58.8667L151.733 55C149.467 51.1333 149.467 51 155.333 43.8C161.067 36.8667 172 26.6 172.8 27.4C173.067 27.6667 172.533 31.4 171.6 35.8ZM188.533 29C188.933 30.0667 188.933 31.9333 188.533 33C187.6 35.4 184.4 35.6667 183.733 33.5333C183.333 32.3333 182.4 32.3333 180.267 33.5333C176.8 35.4 176.533 34.0667 179.467 29.9333C181.733 26.6 187.333 26.0667 188.533 29ZM122.667 42.2C122.667 43 121.6 42.4667 120.533 41C118.4 38.4667 118.4 38.4667 118.933 41.9333C119.333 43.9333 119.2 45.2667 118.667 45C118 44.6 117.2 45.2667 116.8 46.4667C116.4 47.5333 115.467 48.0667 114.667 47.6667C112.667 46.4667 113.067 41.2667 115.6 37.8L117.733 34.6L120.267 37.6667C121.6 39.2667 122.667 41.2667 122.667 42.2ZM197.467 48.3333C201.333 50.4667 200.533 52.3333 196 51.5333C193.2 50.8667 190.4 51.6667 185.733 54.4667C182.267 56.4667 178.533 59 177.6 59.9333C176 61.5333 174 62.0667 172.933 61.2667C172.667 61.1333 171.333 61.9333 169.867 63C168.133 64.3333 168.533 63.5333 170.8 60.3333C178.4 50.2 190.533 44.7333 197.467 48.3333ZM86.5333 50.4667C86.8 50.7333 86.2667 51.9333 85.2 53.1333C84.2667 54.3333 83.0667 57.9333 82.6667 61.2667L82 67.2667L77.7333 58.8667C75.3333 54.3333 73.7333 50.2 74 49.6667C74.6667 48.7333 85.3333 49.4 86.5333 50.4667ZM119.333 57.1333C118.8 60.6 119.067 62.3333 120.267 63.1333C121.6 64.0667 121.6 64.3333 120.4 64.3333C119.467 64.3333 118.667 65.8 118.667 67.5333C118.667 69.2667 117.867 71.1333 117.067 71.4C116.133 71.8 119.2 72.2 123.867 72.2L132.267 72.3333L131.467 67.9333C130.533 62.7333 132.533 58.4667 134.667 61.6667C135.333 62.7333 135.6 65.5333 135.2 67.8C134.533 71.8 134.667 71.9333 139.867 72.8667C142.933 73.2667 145.333 74.0667 145.333 74.4667C145.333 76.0667 140.667 83 139.6 83C138.933 83 136.933 81.8 135.067 80.3333C133.2 78.8667 129.867 77.6667 127.867 77.6667C125.6 77.6667 122.933 78.8667 121.733 80.3333C120.4 81.8 118.4 83 117.067 83C115.733 83 114 81.8 113.067 80.3333C112 78.7333 109.867 77.6667 107.867 77.6667C106 77.6667 102.8 78.8667 100.933 80.3333C97.2 83.2667 94 83.8 92.5333 81.5333C92.1333 80.7333 89.8667 80.3333 87.7333 80.6C84.4 81.1333 83.8667 80.8667 84.2667 78.4667C84.5333 76.2 86.2667 75.2667 92.9333 73.8C101.2 71.9333 101.2 71.8 100.667 67.8C100.267 65.5333 100.667 62.7333 101.333 61.6667C103.467 58.6 105.467 62.6 104.533 67.9333C103.733 72.3333 103.733 72.3333 109.2 72.3333H114.667V62.3333C114.667 53 114.933 52.3333 117.467 52.3333C120 52.3333 120.267 52.8667 119.333 57.1333ZM94.1333 56.6C96.2667 59 96.2667 59.2667 94.4 58.6C92.9333 58.0667 92 58.7333 91.4667 61.1333C90.5333 64.4667 88.8 65.2667 87.3333 62.8667C86.2667 61.4 89.0667 53.6667 90.6667 53.6667C91.2 53.6667 92.6667 55 94.1333 56.6ZM147.467 55.9333C148.4 57.2667 149.2 59.5333 149.2 61C149.2 63.4 149.067 63.4 148 60.6C147.333 59 146.4 57.6667 146 57.6667C145.467 57.6667 145.6 58.3333 146.133 59.1333C146.533 59.9333 146.267 61.1333 145.333 61.6667C144.4 62.3333 144.133 63.4 144.8 64.4667C146.8 67.6667 146.533 72.3333 144.533 72.3333C143.067 72.3333 142.533 71.1333 142.8 68.6C142.933 66.6 142.667 63.4 142 61.2667C141.467 59 141.6 56.8667 142.667 55.6667C144.8 53.1333 145.333 53.1333 147.467 55.9333ZM165.867 57.4C166.933 59.1333 158.8 67 155.867 67C152.8 67 152.667 65.8 155.733 62.2C159.333 57.6667 164.533 55.2667 165.867 57.4ZM61.7333 60.4667C66.8 63.1333 74.5333 69.6667 77.4667 73.8L80.2667 77.8L75.2 74.3333C69.6 70.6 56.8 66.3333 54 67.5333C52.9333 67.9333 52.5333 69.2667 52.9333 70.8667C53.6 73.2667 53.0667 73.6667 49.6 73.6667C42.9333 73.6667 40.4 66.6 45.3333 61.6667C48.4 58.6 57.0667 58.0667 61.7333 60.4667ZM92 69C92 70.8667 91.4667 72.3333 90.6667 72.3333C90 72.3333 89.3333 70.8667 89.3333 69C89.3333 67.1333 90 65.6667 90.6667 65.6667C91.4667 65.6667 92 67.1333 92 69ZM185.067 72.6C184.8 73.4 182.267 74.3333 179.6 74.4667C176.8 74.7333 173.333 75.6667 171.867 76.4667C167.2 78.8667 167.467 76.6 172.133 73.8C177.067 70.7333 185.867 69.9333 185.067 72.6ZM151.6 79.2667C151.2 80.3333 150.8 79.9333 150.8 78.4667C150.667 77 151.067 76.2 151.467 76.7333C151.867 77.1333 152 78.3333 151.6 79.2667ZM112.8 87.6667C117.6 91.8 119.733 91.8 124.533 87.6667L128.4 84.4667L131.733 87C135.733 90.2 141.733 90.4667 144.533 87.5333C145.733 86.4667 147.2 85.9333 148 86.3333C150.933 88.2 148.933 89.2667 139.733 90.8667C122.4 93.8 88.1333 100.333 86 101.133C83.2 102.333 83.3333 95 86.4 89.8C88.9333 85.1333 89.7333 84.8667 92 87.6667C94.4 90.6 100.933 90.2 102.933 87C105.2 83.4 108.133 83.6667 112.8 87.6667ZM177.333 85.6667C177.333 86.3333 175.067 87 172.4 86.8667C167.867 86.7333 167.733 86.6 170.667 85.6667C175.467 84.2 177.333 84.2 177.333 85.6667ZM60 87.8C64.8 89.8 65.3333 90.4667 65.3333 94.7333C65.3333 99.1333 65.2 99.2667 63.0667 97.4C58.2667 93.1333 46.9333 92.0667 40.9333 95.1333C28.6667 101.4 29.0667 119.667 41.3333 117.133C43.8667 116.733 45.2 116.867 44.6667 117.667C44.2667 118.467 41.2 119 37.8667 119C29.7333 119 25.3333 114.467 25.3333 105.933C25.3333 91 43.7333 81.4 60 87.8ZM76.4 89.2667C77.4667 90.2 73.6 95 71.7333 95C70.4 95 70.2667 90.4667 71.6 89.2667C72.6667 88.0667 75.3333 88.0667 76.4 89.2667ZM191.467 90.4667C193.6 92.2 193.6 92.4667 191.733 91.8C189.333 91.1333 187.333 95.1333 188.267 99.1333C188.533 100.333 187.733 100.867 186 100.6C184.533 100.333 182 99.9333 180.4 99.9333C178.133 99.6667 177.333 98.8667 177.333 96.4667C177.333 89.4 185.733 85.8 191.467 90.4667ZM168 90.3333C168 90.7333 166.8 93.4 165.333 96.3333C163.867 99.2667 162.667 103.8 162.667 106.333C162.667 113.667 158.533 111.267 156.8 103C156.4 101.133 155.2 98.4667 154.133 97C152.133 94.3333 152.133 94.3333 152.933 97.4C153.867 101 150.133 105.667 146.4 105.667C144.667 105.667 144 106.6 144 109.533C144 113.4 140.4 116.333 139.333 113.267C139.067 112.467 138.933 107.4 139.067 102.333L139.333 93H145.6C148.933 93 151.467 92.6 151.067 91.9333C149.6 89.5333 156.133 91.2667 157.867 93.9333L159.867 96.7333L161.467 93.2667C162.4 91.2667 164.133 89.6667 165.6 89.6667C166.933 89.6667 168 89.9333 168 90.3333ZM134.8 98.2C136.667 102.2 134.533 106.6 130 107.8C128 108.333 126.667 109.533 126.667 111C126.667 114.867 125.2 117.667 123.2 117.667C121.733 117.667 121.333 115.133 121.333 106.333V95H127.333C132.4 95 133.6 95.5333 134.8 98.2ZM116.4 107.267C118.4 116.6 117.867 120.333 114.8 118.467C114 117.933 113.333 116.6 113.333 115.533C113.333 112.333 109.467 113.533 108.533 117C108.133 118.867 106.933 120.333 105.867 120.333C103.6 120.333 103.6 120.2 105.467 110.2C107.467 98.4667 107.867 97.6667 111.2 97.6667C113.867 97.6667 114.533 98.7333 116.4 107.267ZM56 101.667C56 103.8 56.6667 104.2 59.7333 103.533C68.1333 101.8 75.3333 108.6 75.0667 117.8C74.8 123.533 71.4667 130.733 68.6667 131.933C67.2 132.467 67.6 133.533 70.6667 136.333C74.2667 139.667 74.6667 140.867 74.6667 147.933C74.6667 152.867 73.8667 156.867 72.6667 158.467C71.6 159.8 70.6667 160.467 70.6667 159.933C70.6667 159.267 69.7333 159.8 68.5333 161C67.3333 162.067 66.6667 163.933 67.0667 165C67.4667 165.933 66.9333 167.533 65.8667 168.467C64.2667 169.8 64.1333 169.667 64.8 167.8C65.7333 165.4 62.1333 164.733 60.6667 167C60.1333 167.8 56.9333 169.933 53.3333 171.667C45.8667 175.4 36 176.067 32.9333 173C31.8667 171.933 30.5333 171.533 30 172.067C29.4667 172.6 29.2 172.333 29.4667 171.667C29.6 170.867 29.3333 169.4 28.8 168.2C26.1333 162.2 35.8667 153.667 43.2 155.533C47.2 156.467 47.7333 159 44.4 159.933C40.8 160.867 37.0667 166.6 38 169.667C40.2667 177 58.1333 168.733 63.7333 157.667C68.8 147.667 66.8 138.2 59.8667 139.267C57.2 139.533 56.5333 140.6 55.8667 145C55.4667 147.933 54.9333 149 54.8 147.267C54.6667 144.333 54.5333 144.2 52.4 146.467C50.1333 148.6 50 148.6 49.3333 144.867C48.1333 139.4 47.7333 101.933 48.6667 100.333C49.0667 99.6667 50.9333 99 52.8 99C55.0667 99 56 99.6667 56 101.667ZM101.333 110.467C101.333 120.6 101.067 121.8 99.0667 121.4C97.6 121.133 96.5333 119.533 96.2667 117.267C95.6 112.2 92.8 113.4 92 119C91.6 121.4 90.5333 123.667 89.7333 124.067C88.4 124.467 88 121.667 88 113.133C88 103.8 88.4 101.667 90 101.667C91.3333 101.667 92 103 92 105.8C92 111 95.2 110.333 95.7333 104.867C96.2667 101.267 97.8667 99.1333 100.4 99C100.933 99 101.333 104.2 101.333 110.467ZM10.1333 105.667C12.5333 106.6 13.3333 107.533 12.4 108.467C10.9333 109.933 2.66665 107.533 2.66665 105.533C2.66665 103.933 5.59999 104.067 10.1333 105.667ZM82.9333 109.4C83.4667 111.4 83.0667 111.8 80.5333 111.267C76.9333 110.6 76.5333 109.667 78.9333 107.267C80.8 105.4 82.1333 106.2 82.9333 109.4ZM46.4 110.067C46.6667 111.667 46 112.333 44.1333 112.333C42.5333 112.333 41.3333 111.533 41.3333 110.6C41.3333 106.467 45.6 106.067 46.4 110.067ZM157.067 110.067C157.867 111 158.667 117.133 158.933 123.667C159.467 140.333 162 140.2 166.533 123.4C168.4 116.467 171.067 113.667 175.867 113.667C181.067 113.667 182.267 115.667 183.467 125.667C183.867 130.467 184.933 135.133 185.733 136.067C186.933 137.533 186.533 137.8 184 137.4C182.133 137.267 180.133 135.667 179.333 133.933C177.733 130.333 176.4 130.2 175.333 133.533C174.267 136.867 171.2 138.067 167.867 136.333C166.267 135.4 165.333 135.4 165.333 136.2C165.333 137 164 138.333 162.4 139.133C159.867 140.467 159.067 140.2 156.4 137.133L153.333 133.533L151.733 136.867C150.133 140.733 146 141.4 142.133 138.6C138.667 136.067 138.533 124.2 141.867 120.467C144.667 117.4 149.333 116.867 151.733 119.267C152.933 120.467 153.333 119.533 153.333 114.6C153.333 108.333 154.533 106.867 157.067 110.067ZM166.667 115.667C165.067 117.667 161.333 118.467 161.333 116.733C161.333 116.333 162.4 114.733 163.6 113.4C166.4 110.333 169.333 112.467 166.667 115.667ZM193.333 122.6C194.133 133.133 194.933 134.867 198 132.333C199.467 131.133 200 128.2 200 122.067C200 113.533 200 113.533 203.733 113.933C207.333 114.333 207.333 114.467 207.733 125C208 133.133 207.467 136.733 205.733 140.333C203.2 145.267 194.667 151 189.733 151C185.067 151 186.133 148.733 191.333 147C198.8 144.6 203.467 136.067 196.667 137.4C190.267 138.6 188 134.733 188 122.733C188 113.4 188.267 112.2 190.4 112.6C192.267 113 192.8 114.867 193.333 122.6ZM83.2 120.2C83.6 120.867 82.1333 122.067 80 122.867C76.2667 124.067 76.1333 124.067 77.3333 121.667C78.8 118.867 82 118.2 83.2 120.2ZM112 123C112 124.733 112.933 125.667 114.667 125.667C116.133 125.667 117.333 126.467 117.333 127.533C117.333 128.6 116.133 129.933 114.667 130.333C112.533 131 112 132.333 112 136.867C112 139.933 112.667 143.133 113.6 144.067C114.8 145.267 114.533 145.667 112.267 145.667C108.933 145.667 106.8 142.333 106.4 136.467C106.133 132.333 102.667 130.467 102.667 134.467C102.667 136.067 101.867 136.467 99.3333 135.8C95.4667 134.867 93.3333 137.933 93.3333 144.333C93.3333 148.2 90.4 151.133 88.4 149.133C87.2 147.933 86.8 129.667 88 129.667C88.6667 129.667 90 129.267 91.2 128.867C92.8 128.2 93.3333 128.867 93.3333 131.133V134.2L95.4667 131.267C96.6667 129.533 98.4 128.467 99.4667 128.867C100.4 129.267 103.2 127.533 105.6 125C110.533 119.667 112 119.267 112 123ZM123.2 121.133C124.533 121.667 125.333 123.533 125.333 125.933C125.333 129 125.867 129.8 127.467 129.133C128.667 128.733 130.133 128.333 130.8 128.333C131.467 128.333 132 126.467 132 124.333C132 121.267 132.533 120.333 134.667 120.333C137.067 120.333 137.333 121.267 137.333 131C137.333 140.6 137.067 141.667 134.8 141.667C132.933 141.667 132 140.333 131.467 137C130.933 134.467 130.133 132.333 129.6 132.333C127.067 132.467 125.467 134.733 125.067 139C124.8 142.6 124.133 143.667 122 143.667C119.6 143.667 119.333 142.6 118.933 131.933C118.533 120.467 118.933 119.533 123.2 121.133ZM46.6667 130.333C48.6667 132.867 47.3333 135 43.4667 135C39.7333 135 34 140.867 35.0667 143.533C35.6 144.733 37.3333 145.667 38.9333 145.8H42L38.9333 147.133C33.7333 149.133 28 144.333 28 137.933C28 131.267 42.5333 125.267 46.6667 130.333ZM84 141C84 149.4 83.6 151.133 81.4667 152.333C80 153 78.5333 153.667 78.2667 153.667C76.9333 153.667 77.6 133 79.0667 132.067C83.2 129.4 84 131 84 141ZM183.6 148.733C183.067 150.067 180.133 150.733 173.333 150.867C160.133 151.267 145.867 153 119.2 157.533C108.533 159.4 87.6 166.2 82 169.667C76.8 172.867 69.8667 180.333 68.8 184.067C67.7333 187.267 64.4 188.867 63.2 186.733C62.6667 185.8 62.8 185.667 63.7333 186.2C65.6 187.4 65.7333 185.8 64.1333 183.133C61.3333 178.733 71.0667 167.533 81.7333 162.6C95.0667 156.467 125.333 150.2 156.667 147.133C183.2 144.467 185.2 144.6 183.6 148.733ZM200.8 156.067C200 158.6 194.8 161.667 191.467 161.667C190.4 161.667 188.933 160.867 188.133 159.8C186.933 158.333 187.467 157.8 191.067 157.133C193.467 156.733 196.667 155.4 198.133 154.467C201.2 152.2 201.867 152.6 200.8 156.067ZM160.533 161.533C161.467 162.867 155.067 171 153.2 171C151.2 171 151.867 165.4 154.267 162.733C156.533 160.2 159.333 159.667 160.533 161.533ZM178.267 167.133C176.267 170.2 171.6 169.8 170.667 166.333C169.6 162.6 174.4 160.2 177.6 162.867C179.333 164.333 179.467 165.267 178.267 167.133ZM148.533 165C148.133 166.867 148.533 170.2 149.467 172.6C150.933 176.2 150.8 176.867 148.667 178.467C145.333 181 140.667 180.867 138.533 178.2C136.933 176.333 136.667 176.333 135.867 178.6C135.067 180.467 134.8 180.067 134.8 177C134.667 171.133 137.467 166.6 142.667 164.067C148.8 160.867 149.6 161 148.533 165ZM123.333 169.4C122.933 170.733 123.467 170.867 125.467 170.333C127.467 169.667 128 169.8 127.467 170.867C126.267 172.6 113.467 172.733 110.8 171.133C109.2 170.067 109.733 169.667 112.8 169C114.933 168.467 117.333 167.933 118 167.667C121.2 166.733 124 167.667 123.333 169.4ZM193.733 173.8C198.4 179.533 194.8 188.067 187.333 189C182.267 189.533 180 188.2 183.467 186.733C185.333 185.933 185.067 185.8 182.4 186.333C179.2 187 178.667 186.467 177.867 183.4C177.467 181.267 176.933 178.867 176.533 177.933C176.267 177 177.6 174.6 179.467 172.733C182.133 170.067 183.733 169.533 187.067 170.2C189.467 170.6 192.4 172.333 193.733 173.8ZM84 182.867C80.2667 190.467 77.3333 194.067 77.3333 191.133C77.3333 189.267 85.8667 175 87.0667 175C87.6 175 86.2667 178.6 84 182.867ZM123.067 178.2C128.133 180.333 132.533 185 131.333 186.867C130.933 187.667 131.067 188.333 131.867 188.333C132.667 188.333 132.933 189.133 132.533 190.2C132.133 191.267 132.4 193.4 133.333 194.867C134.8 197.667 132.933 199 131.333 196.2C130.667 195.267 129.733 195.4 128.267 196.733C126.933 197.8 123.467 199.133 120.4 199.667C115.867 200.333 114.4 200.067 112.133 197.8C108.8 194.467 108.667 192.867 111.2 191.933C113.867 190.867 121.333 193.933 121.333 195.933C121.333 198.867 124.933 197.8 127.2 194.333C129.733 190.467 128.933 187.933 125.6 188.867C122.933 189.667 114 186.867 111.6 184.467C110.4 183.133 110.533 183 112.533 183.8C114.267 184.467 114.8 184.333 114.133 183.267C113.6 182.333 111.733 181.667 109.867 181.667C106.8 181.667 105.6 179.267 107.6 177.267C109.067 175.667 118.533 176.2 123.067 178.2ZM99.7333 180.6C100.4 181.533 101.067 183.933 101.067 185.933C101.067 189.4 100.933 189.4 98.2667 186.867C96.6667 185.4 94.8 184.467 93.8667 184.867C93.0667 185.133 91.6 184.867 90.6667 184.333C89.2 183.4 89.2 182.867 90.5333 181.133C92.6667 178.6 97.8667 178.333 99.7333 180.6ZM136.667 206.467C136.667 209.667 136.133 210.333 133.333 210.333C129.2 210.333 128 205.933 131.467 203.4C134.933 200.867 136.667 201.933 136.667 206.467Z" fill="#66FF00"/>
<path d="M117.067 9.26666C118 9.66666 119.2 9.53333 119.6 9.13333C120.133 8.73333 119.333 8.33333 117.867 8.46666C116.4 8.46666 116 8.86666 117.067 9.26666Z" fill="#66FF00"/>
<path d="M91.6 37.8C92.5333 38.7333 93.6 39.1333 94 38.7333C94.4 38.3333 93.7333 37.5333 92.4 37.1333C90.5333 36.3333 90.4 36.4666 91.6 37.8Z" fill="#66FF00"/>
<path d="M144.4 98.3333C144 99.5333 144 100.733 144.4 101.133C145.6 102.333 148 100.333 148 98.2C148 95.6667 145.467 95.8 144.4 98.3333Z" fill="#66FF00"/>
<path d="M126.667 101.8C126.667 105 129.733 104.6 130.4 101.267C130.667 99.9333 130 99 128.8 99C127.467 99 126.667 100.2 126.667 101.8Z" fill="#66FF00"/>
<path d="M110 107C109.6 107.667 109.867 108.333 110.533 108.333C111.333 108.333 112 107.667 112 107C112 106.2 111.733 105.667 111.467 105.667C111.067 105.667 110.4 106.2 110 107Z" fill="#66FF00"/>
<path d="M56.4 123C56.5333 130.333 56.9333 136.333 57.3333 136.333C57.7333 136.333 59.2 135.4 60.5333 134.333C70.9333 126.467 70.1333 109.667 59.3333 109.667H56L56.4 123Z" fill="#66FF00"/>
<path d="M171.467 120.6C169.067 123.933 168.533 132.333 170.667 132.333C172.667 132.333 177.333 124.2 177.333 120.6C177.333 116.733 174.133 116.733 171.467 120.6Z" fill="#66FF00"/>
<path d="M145.067 124.333C144.133 127.267 145.6 136.467 147.067 135.933C147.867 135.667 149.733 133.8 151.2 131.933C153.333 129 153.6 127.667 152.533 125.933C150.8 123.267 145.867 122.2 145.067 124.333Z" fill="#66FF00"/>
<path d="M142.667 3.6667C142.667 4.8667 143.333 5.6667 144.133 5.40003C144.933 5.13336 145.6 4.33336 145.6 3.6667C145.6 3.00003 144.933 2.20003 144.133 1.93336C143.333 1.6667 142.667 2.4667 142.667 3.6667Z" fill="#66FF00"/>
<path d="M89.0666 3.93329C90 4.33329 91.2 4.19995 91.6 3.79995C92.1333 3.39995 91.3333 2.99995 89.8666 3.13329C88.4 3.13329 88 3.53329 89.0666 3.93329Z" fill="#66FF00"/>
<path d="M79.3333 7.26664C78.8 8.59998 77.4666 9.66665 76.4 9.66665C75.0666 9.66665 74.6666 10.4666 75.2 11.8C75.6 13 76 14.7333 76 15.6666C76 18.8666 83.0666 17.4 84.9333 13.8C87.0666 9.93331 87.0666 9.66665 85.2 9.66665C84.2666 9.66665 82.8 8.59998 81.8666 7.26664C80.2666 5.13331 80.1333 5.13331 79.3333 7.26664Z" fill="#66FF00"/>
<path d="M190.667 17C190.667 18.0667 191.6 19 192.667 19C193.733 19 194.667 18.0667 194.667 17C194.667 15.9333 193.733 15 192.667 15C191.6 15 190.667 15.9333 190.667 17Z" fill="#66FF00"/>
<path d="M36.5333 35.6667L33.7333 41.6667H36.8C40.1333 41.6667 42 37 40.2667 32.4667C39.4667 30.0667 38.9333 30.4667 36.5333 35.6667Z" fill="#66FF00"/>
<path d="M204.8 38.0666C205.2 39.4 206 40.0666 206.4 39.6666C206.8 39.2666 206.4 38.2 205.467 37.2666C204.133 36.0666 204 36.2 204.8 38.0666Z" fill="#66FF00"/>
<path d="M211.6 54.4667C209.733 56.4667 210.8 59 213.467 59C215.333 59 216 58.3333 215.733 56.7333C215.333 54.3333 213.067 53.1333 211.6 54.4667Z" fill="#66FF00"/>
<path d="M8.79998 81.5334C8.26665 82.2 8.53332 83.1334 9.19998 83.5334C9.86665 84.0667 10.8 83.8 11.2 83.1334C11.7333 82.4667 11.4667 81.5334 10.8 81.1334C10.1333 80.6 9.19998 80.8667 8.79998 81.5334Z" fill="#66FF00"/>
<path d="M223.733 84.8666C220.267 87.4 220.8 88.4666 224.667 86.7333C226.533 85.9333 228 84.7333 228 84.0666C228 82.4666 226.4 82.8666 223.733 84.8666Z" fill="#66FF00"/>
<path d="M20.1333 85.5333C19.2 86.2 18.5333 87.4 18.8 88.2C19.0666 89 20.1333 88.4667 21.0666 87C22.9333 84.0667 22.8 83.9333 20.1333 85.5333Z" fill="#66FF00"/>
<path d="M5.33331 94.8667C5.33331 95.9333 12.2666 99 14.8 99C17.2 99 15.8666 96.7333 12.6666 95.2667C8.53331 93.4 5.33331 93.2667 5.33331 94.8667Z" fill="#66FF00"/>
<path d="M221.867 97.1333C219.6 99 219.6 99.1333 221.733 98.4667C223.067 98.0667 224.8 97.6667 225.467 97.6667C226.133 97.6667 226.667 97 226.667 96.3333C226.667 94.4667 224.933 94.7333 221.867 97.1333Z" fill="#66FF00"/>
<path d="M1.33331 128.2C1.33331 128.867 1.73331 130.333 2.13331 131.533C3.06665 134.067 9.33331 134.467 9.33331 131.933C9.33331 130.733 9.59998 130.733 10.4 132.067C11.2 133.267 12.2666 132.867 14.6666 130.333L17.7333 127H9.59998C5.06665 127 1.33331 127.533 1.33331 128.2ZM6.66665 130.333C6.66665 131.4 6.13331 132.333 5.33331 132.333C4.66665 132.333 3.99998 131.4 3.99998 130.333C3.99998 129.267 4.66665 128.333 5.33331 128.333C6.13331 128.333 6.66665 129.267 6.66665 130.333Z" fill="#66FF00"/>
<path d="M225.333 129.667C223.467 131.133 222.267 132.333 222.667 132.333C223.067 132.467 225.867 132.733 229.067 133.133C234.267 133.667 234.667 133.4 234.667 130.333C234.667 126.2 230.267 125.8 225.333 129.667Z" fill="#66FF00"/>
<path d="M23.3333 183C22.9333 183.667 23.4667 184.333 24.6667 184.333C25.8667 184.333 26.4 183.667 26 183C25.6 182.2 24.9333 181.667 24.6667 181.667C24.4 181.667 23.7333 182.2 23.3333 183Z" fill="#66FF00"/>
<path d="M31.3333 192.333C30.1333 194.333 31.8666 196.333 34.8 196.333C36.4 196.333 37.3333 195.4 37.3333 193.667C37.3333 190.867 32.9333 189.8 31.3333 192.333Z" fill="#66FF00"/>
<path d="M188 201.667C188 202.333 188.667 203 189.333 203C190.133 203 190.667 202.333 190.667 201.667C190.667 200.867 190.133 200.333 189.333 200.333C188.667 200.333 188 200.867 188 201.667Z" fill="#66FF00"/>
<path d="M53.4667 208.733C52.6667 209.8 52.4 211 52.9333 211.4C53.8667 212.467 57.3333 209.933 57.3333 208.2C57.3333 206.467 55.2 206.733 53.4667 208.733Z" fill="#66FF00"/>
<path d="M114.267 213.667C113.067 215.133 112 216.867 112 217.4C112 220.067 115.467 225.667 117.2 225.667C121.6 225.667 124.533 216.067 121.067 212.6C118.8 210.333 116.933 210.6 114.267 213.667ZM119.733 217.267C119.467 218.6 118.4 219.667 117.333 219.667C116.267 219.667 115.2 218.6 114.933 217.267C114.667 215.667 115.333 215 117.333 215C119.333 215 120 215.667 119.733 217.267Z" fill="#66FF00"/>
<path d="M73.3333 219.133C73.3333 219.8 74 220.067 74.6666 219.667C75.4666 219.267 76 218.6 76 218.2C76 217.933 75.4666 217.667 74.6666 217.667C74 217.667 73.3333 218.333 73.3333 219.133Z" fill="#66FF00"/>
<path d="M142.667 220.867C142.667 221.8 143.6 223.4 144.667 224.333C146.267 225.667 146.8 225.533 147.467 223.933C147.867 222.733 147.867 221.133 147.333 220.333C146.133 218.333 142.667 218.733 142.667 220.867Z" fill="#66FF00"/>
</svg>
